<?xml version="1.0" encoding="UTF-8"?>
<svg width="24px" height="24px" viewBox="0 0 24 24" version="1.1" xmlns="http://www.w3.org/2000/svg" xmlns:xlink="http://www.w3.org/1999/xlink">
    <title>819A9878-1AE5-42C6-98B0-49FF307F72DA</title>
    <g id="📱-Design" stroke="none" stroke-width="1" fill="none" fill-rule="evenodd">
        <g id="Verification-T&amp;C" transform="translate(-280.000000, -71.000000)" fill="#BEBFC0">
            <g id="bottom-sheet" transform="translate(0.000000, 44.000000)">
                <g id="cancel-icon_circular" transform="translate(280.000000, 27.000000)">
                    <path d="M11.9998649,0 C5.37242847,0 0,5.37269871 0,11.9998649 C0,18.627031 5.37269871,24 11.9998649,24 C18.6273013,24 24,18.6273013 24,11.9998649 C24,5.37242847 18.6273013,0 11.9998649,0 Z M16.6137216,15.8027227 L15.8027227,16.6137216 L11.9998649,12.8108638 L8.19700706,16.6137216 L7.38600817,15.8027227 L11.188866,11.9998649 L7.38627842,8.1972773 L8.1972773,7.38627842 L12.0001351,11.1891362 L15.8029929,7.38627842 L16.6139918,8.1972773 L12.8108638,11.9998649 L16.6137216,15.8027227 Z" id="icon"></path>
                </g>
            </g>
        </g>
    </g>
</svg>