<?xml version="1.0" encoding="UTF-8"?>
<svg width="24px" height="24px" viewBox="0 0 24 24" version="1.1" xmlns="http://www.w3.org/2000/svg" xmlns:xlink="http://www.w3.org/1999/xlink">
    <title>41E7E6D9-7CB4-4465-8595-EE710BC53831</title>
    <g id="📱-Design" stroke="none" stroke-width="1" fill="none" fill-rule="evenodd">
        <g id="Profiling-Personal_inactive-Copy-6" transform="translate(-264.000000, -1382.000000)">
            <g id="Group-Copy" transform="translate(16.000000, 1362.000000)">
                <g id="💎-icon" transform="translate(248.000000, 20.000000)">
                    <rect id="container" x="0" y="0" width="24" height="24"></rect>
                    <g id="selected_icon" transform="translate(2.000000, 2.000000)">
                        <rect id="Rectangle" fill="#ED1164" x="0" y="0" width="20" height="20" rx="10"></rect>
                        <path d="M14.2363867,7.14719626 L8.96327564,12.8224299 L6.77501055,10.4672897 C6.59265513,10.271028 6.30392571,10.271028 6.13676657,10.4672897 C5.95441114,10.6635514 5.95441114,10.9742991 6.13676657,11.1542056 L8.64415365,13.8528037 C8.73533136,13.9509346 8.85690165,14 8.96327564,14 C9.06964964,14 9.19121992,13.9509346 9.28239764,13.8528037 L14.8746306,7.83411215 C15.0417898,7.65420561 15.0417898,7.34345794 14.8746306,7.14719626 C14.6922752,6.95093458 14.4035458,6.95093458 14.2363867,7.14719626 Z" id="icon" stroke="#FFFFFF" stroke-width="0.5" fill="#FFFFFF"></path>
                    </g>
                </g>
            </g>
        </g>
    </g>
</svg>