<?xml version="1.0" encoding="UTF-8"?>
<svg width="24px" height="24px" viewBox="0 0 24 24" version="1.1" xmlns="http://www.w3.org/2000/svg" xmlns:xlink="http://www.w3.org/1999/xlink">
    <title>D3D43B03-2C19-4A13-9A0A-5E21D77C1BF3</title>
    <g id="📱-Design" stroke="none" stroke-width="1" fill="none" fill-rule="evenodd">
        <g id="Verification-1_inactive" transform="translate(-15.000000, -10.000000)">
            <g id="header">
                <g id="back_button" transform="translate(15.000000, 10.000000)">
                    <g>
                        <rect id="container" x="0" y="0" width="24" height="24"></rect>
                        <path d="M12.7003617,6.41545438 C13.2825566,5.86136775 14.1970364,5.86136783 14.7792312,6.41545455 L14.7792312,6.41545455 L19.5750127,10.9796981 C19.5913311,10.9952287 19.6072627,11.0111607 19.622793,11.0274795 C19.8775673,11.29519 20.0023637,11.6392657 19.9991119,11.9817627 C20.0117179,12.3589446 19.8697608,12.7397859 19.5749686,13.0203457 L19.5749686,13.0203457 L14.7792313,17.5845456 C14.1970364,18.1386323 13.2825566,18.1386323 12.7003617,17.5845456 L12.7003617,17.5845456 L12.6526008,17.5367848 C12.1326301,16.9904365 12.1540134,16.1260141 12.7003617,15.6060434 L12.7003617,15.6060434 L15.166,13.259 L5.2591111,13.2591111 C4.60718498,13.2591111 4.07097972,12.7636512 4.00650065,12.1287368 L4,12 C4,11.3046121 4.56372324,10.7408889 5.2591111,10.7408889 L5.2591111,10.7408889 L15.166,10.74 L12.7003617,8.3939566 C12.6922059,8.38619456 12.6841467,8.37833224 12.6761859,8.37037149 L12.6526008,8.34619574 C12.1326301,7.79984744 12.1540134,6.93542509 12.7003617,6.41545438 Z" id="Back_icon" stroke="#FFFFFF" stroke-width="1.33333333" fill="#BEBFC0" transform="translate(12.000000, 12.000000) scale(-1, 1) translate(-12.000000, -12.000000) "></path>
                    </g>
                </g>
            </g>
        </g>
    </g>
</svg>
