<?xml version="1.0" encoding="UTF-8"?>
<svg width="320px" height="44px" viewBox="0 0 320 44" version="1.1" xmlns="http://www.w3.org/2000/svg" xmlns:xlink="http://www.w3.org/1999/xlink">
    <title>5BE974F3-16A3-4E98-8026-B065FBAFEB95</title>
    <g id="📱-Design" stroke="none" stroke-width="1" fill="none" fill-rule="evenodd">
        <g id="Header">
            <path d="M0,0 L0,44 L152.886549,44 C158.072609,44.0020061 160.019427,39.6026213 160.019427,39.6026213 C160.019427,39.6026213 166.894639,28.1340351 170.164557,22.4252367 C173.438564,16.7164384 178.6144,17.3221951 178.6144,17.3221951 L320,17.3221951 L320,0 L0,0 Z" id="Header_bg" fill="#97144D"></path>
            <g id="axis_logo" transform="translate(15.000000, 9.000000)">
                <rect id="container" x="0" y="-4.54747351e-13" width="105" height="28"></rect>
                <polygon id="Fill-4" fill="#FEFEFE" points="30.4805227 26.5522273 21.31075 26.5522273 15.7409773 16.8445 24.9087045 16.8445"></polygon>
                <polygon id="Fill-6" fill="#FEFEFE" points="15.7088636 1 20.305 8.90568182 10.1493182 26.5518182 1 26.5518182"></polygon>
                <path d="M58.1060227,9.94886364 C57.9117045,9.63590909 57.6785227,9.40681818 57.4085227,9.25954545 C57.1385227,9.11227273 56.8010227,9.03659091 56.3960227,9.03659091 C55.9398864,9.03659091 55.5921591,9.13886364 55.3528409,9.3475 C55.1114773,9.55409091 54.9928409,9.81386364 54.9928409,10.1268182 C54.9928409,10.6484091 55.3753409,11.0186364 56.1423864,11.2415909 L57.2182955,11.5565909 C58.0876136,11.8102273 58.7298864,12.1620455 59.1369318,12.6140909 C59.5480682,13.0640909 59.7546591,13.6040909 59.7546591,14.2279545 C59.7546591,14.6247727 59.6748864,14.995 59.5173864,15.3365909 C59.3598864,15.6781818 59.1369318,15.9747727 58.8464773,16.2202273 C58.5580682,16.4697727 58.2021591,16.6681818 57.7910227,16.8093182 C57.3778409,16.9545455 56.9155682,17.0261364 56.4082955,17.0261364 C55.3876136,17.0261364 54.5817045,16.7990909 53.9905682,16.3429545 C53.3994318,15.8868182 53.0455682,15.2281818 52.9269318,14.3670455 L54.4978409,14.0765909 C54.5898864,14.6431818 54.7985227,15.0625 55.12375,15.3365909 C55.4489773,15.6106818 55.8785227,15.7477273 56.4082955,15.7477273 C56.9585227,15.7477273 57.3819318,15.6147727 57.6744318,15.3488636 C57.9730682,15.0829545 58.1182955,14.7393182 58.1182955,14.3179545 C58.1182955,14.0868182 58.0814773,13.8945455 58.00375,13.735 C57.9280682,13.5734091 57.8196591,13.4322727 57.6805682,13.3095455 C57.5435227,13.1868182 57.3798864,13.0845455 57.1876136,13.0006818 C56.9973864,12.9168182 56.7928409,12.8411364 56.5739773,12.7715909 L55.5348864,12.4668182 C54.7923864,12.25 54.2442045,11.9431818 53.8903409,11.5504545 C53.5364773,11.1577273 53.3585227,10.6811364 53.3585227,10.1268182 C53.3585227,9.77909091 53.4301136,9.46204545 53.5732955,9.16954545 C53.7164773,8.87909091 53.9210227,8.6275 54.1869318,8.42295455 C54.4528409,8.21636364 54.7698864,8.05272727 55.1360227,7.93613636 C55.50625,7.8175 55.9173864,7.75818182 56.3714773,7.75818182 C57.1467045,7.75818182 57.7807955,7.89931818 58.2696591,8.18363636 C58.7605682,8.46386364 59.1267045,8.84636364 59.3721591,9.32909091 L58.1060227,9.94886364 Z M49.8239773,16.8625 L51.4317045,16.8625 L51.4317045,7.90954545 L49.8239773,7.90954545 L49.8239773,16.8625 Z M43.2907955,12.1763636 L40.2778409,7.90954545 L42.1269318,7.90954545 L44.2276136,11.0002273 L46.3426136,7.90954545 L48.1671591,7.90954545 L45.1153409,12.1906818 L48.4207955,16.8625 L46.5696591,16.8625 L44.1907955,13.4179545 L41.7853409,16.8625 L39.9219318,16.8625 L43.2907955,12.1763636 Z M32.9980682,13.5836364 L36.2278409,13.5836364 L34.6426136,10.5195455 L32.9980682,13.5836364 Z M36.8701136,14.8497727 L32.3251136,14.8497727 L31.2246591,16.8625 L29.5044318,16.8625 L34.6548864,7.58022727 L39.7071591,16.8625 L37.9603409,16.8625 L36.8701136,14.8497727 Z" id="Fill-8" fill="#FEFEFE"></path>
                <path d="M95.1819318,7.90934091 L96.7896591,7.90934091 L96.7896591,11.50525 L100.905114,7.90934091 L102.956705,7.90934091 L98.23375,11.9736591 L103.083523,16.8622955 L100.95625,16.8622955 L97.1067045,12.9370682 L96.7896591,13.2172955 L96.7896591,16.8622955 L95.1819318,16.8622955 L95.1819318,7.90934091 Z M85.3801136,10.9366136 L85.3801136,16.8622955 L83.7723864,16.8622955 L83.7723864,7.65570455 L91.4469318,13.8861591 L91.4469318,7.90934091 L93.0546591,7.90934091 L93.0546591,17.1650227 L85.3801136,10.9366136 Z M75.7828409,13.5813864 L79.0126136,13.5813864 L77.4294318,10.5172955 L75.7828409,13.5813864 Z M79.6569318,14.8516136 L75.1119318,14.8516136 L74.0094318,16.8622955 L72.2871591,16.8622955 L77.4417045,7.58002273 L82.4939773,16.8622955 L80.7471591,16.8622955 L79.6569318,14.8516136 Z M68.6667045,15.5695682 C69.2578409,15.5695682 69.7303409,15.4611591 70.0842045,15.24025 C70.4401136,15.0234318 70.6160227,14.6879773 70.6160227,14.2420682 C70.6160227,13.7838864 70.4401136,13.4484318 70.0842045,13.2357045 C69.7303409,13.0188864 69.2578409,12.9104773 68.6667045,12.9104773 L67.4639773,12.9104773 L67.4639773,15.5695682 L68.6667045,15.5695682 Z M68.0960227,11.7322955 C68.6278409,11.7322955 69.0307955,11.6197955 69.3069318,11.3907045 C69.5810227,11.1636591 69.7180682,10.8486591 69.7180682,10.4416136 C69.7180682,10.0366136 69.5810227,9.71956818 69.3069318,9.49252273 C69.0307955,9.26343182 68.6339773,9.15093182 68.1082955,9.15093182 L67.4639773,9.15093182 L67.4639773,11.7322955 L68.0960227,11.7322955 Z M65.85625,7.90934091 L68.0080682,7.90934091 C69.09625,7.90934091 69.9144318,8.13434091 70.4646591,8.58025 C71.0128409,9.02820455 71.2869318,9.62343182 71.2869318,10.3659318 C71.2869318,10.6870682 71.2010227,11.0041136 71.0292045,11.3088864 C70.8553409,11.61775 70.6201136,11.8713864 70.3255682,12.0636591 C70.89625,12.2313864 71.3544318,12.5116136 71.7021591,12.9043409 C72.0498864,13.2970682 72.22375,13.7593409 72.22375,14.2911591 C72.22375,14.6286591 72.15625,14.9538864 72.0232955,15.2688864 C71.8882955,15.5797955 71.6755682,15.8538864 71.3851136,16.0891136 C71.0946591,16.3263864 70.7203409,16.5125227 70.26625,16.6516136 C69.8101136,16.79275 69.2639773,16.8622955 68.62375,16.8622955 L65.85625,16.8622955 L65.85625,7.90934091 Z" id="Fill-10" fill="#FEFEFE"></path>
            </g>
        </g>
    </g>
</svg>
